<?xml version="1.0" encoding="UTF-8" standalone="no" ?>
<!DOCTYPE svg PUBLIC "-//W3C//DTD SVG 1.1//EN" "http://www.w3.org/Graphics/SVG/1.1/DTD/svg11.dtd">
<svg xmlns="http://www.w3.org/2000/svg" xmlns:xlink="http://www.w3.org/1999/xlink" version="1.1" width="215" height="373" viewBox="0 0 215 373" xml:space="preserve">
<desc>Created with Fabric.js 3.6.6</desc>
<defs>
</defs>
<g transform="matrix(2.44 0 0 3.2 107.36 140.8)"  >
<circle style="stroke: rgb(255,0,0); stroke-width: 8; stroke-dasharray: ; stroke-linecap: butt; stroke-dashoffset: 0; stroke-linejoin: miter; stroke-miterlimit: 4; fill: rgb(255,0,0); fill-rule: nonzero; opacity: 1;"  cx="0" cy="0" r="40" />
</g>
<g transform="matrix(1 0 0 1 111.5 326.01)"  >
<path style="stroke: rgb(255,255,255); stroke-width: 15; stroke-dasharray: none; stroke-linecap: round; stroke-dashoffset: 0; stroke-linejoin: round; stroke-miterlimit: 10; fill: none; fill-rule: nonzero; opacity: 1;"  transform=" translate(-280.5, -365.01)" d="M 273.985 325 Q 274 325 275 325.5 Q 276 326 276.5 326 Q 277 326 277.5 326.5 Q 278 327 278.5 327.5 Q 279 328 280 328 Q 281 328 281.5 328.5 Q 282 329 282.5 329 Q 283 329 283.5 329 Q 284 329 284.5 329 Q 285 329 285.5 329.5 Q 286 330 286.5 330 Q 287 330 288 330.5 Q 289 331 289.5 331 Q 290 331 290.5 331.5 Q 291 332 291.5 332.5 Q 292 333 293 334 Q 294 335 294 335.5 Q 294 336 294 337 Q 294 338 294 339 Q 294 340 294 343 Q 294 346 294 347.5 Q 294 349 293.5 350.5 Q 293 352 293 353.5 Q 293 355 292 356.5 Q 291 358 290.5 359 Q 290 360 289.5 361 Q 289 362 288.5 362.5 Q 288 363 287 364 Q 286 365 285.5 365.5 Q 285 366 284.5 366.5 Q 284 367 283 367.5 Q 282 368 281 369 Q 280 370 279 370.5 Q 278 371 277.5 371.5 Q 277 372 276.5 372.5 Q 276 373 275.5 373.5 Q 275 374 274.5 374.5 Q 274 375 273 375 Q 272 375 271.5 375 Q 271 375 270 375 Q 269 375 268.5 375 Q 268 375 267.5 375 Q 267 375 267 375.5 Q 267 376 267 376.5 Q 267 377 267 377.5 Q 267 378 267 378.5 Q 267 379 267 379.5 Q 267 380 267 381 Q 267 382 267 382.5 Q 267 383 267 383.5 Q 267 384 267 384.5 Q 267 385 267 385.5 Q 267 386 267 387 Q 267 388 267 388.5 Q 267 389 267 389.5 Q 267 390 267 391 Q 267 392 267 393 Q 267 394 267 395.5 Q 267 397 267 398 Q 267 399 267 400 Q 267 401 267 401.5 Q 267 402 267 402.5 Q 267 403 267 403.5 Q 267 404 267 404.5 L 267 405.015" stroke-linecap="round" />
</g>
<g transform="matrix(1 0 0 1 10 307)"  >
<line style="stroke: rgb(0,0,0); stroke-width: 2; stroke-dasharray: none; stroke-linecap: butt; stroke-dashoffset: 0; stroke-linejoin: miter; stroke-miterlimit: 4; fill: rgb(0,0,0); fill-rule: nonzero; opacity: 1;" vector-effect="non-scaling-stroke"  x1="0" y1="0" x2="0" y2="0" />
</g>
<g transform="matrix(1 0 0 1 53 302)"  >
<line style="stroke: rgb(0,0,0); stroke-width: 2; stroke-dasharray: none; stroke-linecap: butt; stroke-dashoffset: 0; stroke-linejoin: miter; stroke-miterlimit: 4; fill: rgb(0,0,0); fill-rule: nonzero; opacity: 1;" vector-effect="non-scaling-stroke"  x1="0" y1="0" x2="0" y2="0" />
</g>
</svg>